<svg xmlns="http://www.w3.org/2000/svg" xml:space="preserve" style="enable-background:new 0 0 6750 6750" viewBox="0 0 6750 6750"><path d="M3043.5 5746.4c-6.6-4.6-14.2-2.8-21.3-3.2-54.5-3-109.1-5.4-163.6-8.5-45.2-2.5-90.4-5.4-135.6-8.5-56.5-3.9-112.9-8.1-169.3-12.4-10-.8-19.8-2.6-29.8-3.5-45.1-4.1-90.2-8-135.3-12.1-9.9-.9-19.8-2.9-29.7-3.9-37.7-3.9-75.5-7.5-113.3-11.5-34.4-3.6-68.8-7.7-103.2-11.5-9.3-1-18.6-1.3-27.9-2.5-28.4-3.8-56.7-7.9-85-12-58-8.5-115.2-21.1-172.2-34.9-55.7-13.5-110.6-29.5-165.1-47.3-130.6-42.8-256.9-96.1-378.5-160.1-101.5-53.4-199.9-111.9-293.9-177.7-23.1-16.2-43.8-34.8-61.1-57-27.4-35.2-54.8-70.4-82.4-105.5-21-26.7-42.7-52.9-67.6-76.1-10.8-10.1-19.4-21.9-26.4-34.9-57.9-106.8-108.9-216.6-144.9-332.8-10.9-35-22.8-69.5-36.7-103.4-11-26.9-16.5-54.7-11.8-84 1.1-7.1.8-14.7 0-21.9-2.3-19.2-5.1-38.3-7.9-57.4-3.9-27-7.6-54.1-11.9-81-2.1-13.1-4-26.5-8.6-38.9-12.8-34.4-15.9-70-16.2-106.1-.2-21.3.8-42.7.2-64-.6-21.9-.5-44.3-4.7-65.6-3.1-15.9-1.9-29.6 3.4-44.3 4.7-12.8 3.3-26.5-.4-39.4-4.6-16.7-3.3-32.6 1.6-49.1 10.9-36.4 21.1-72.9 31.1-109.5 4.6-16.8 11.3-32.7 19.8-47.8 46.1-82.1 98.4-159.9 157.6-233.2 63.8-79 133.9-151.8 208.8-220.2 81.3-74.3 168.2-141.5 257.8-205.3 109.2-77.7 223.2-147.8 339.5-214.4 173.5-99.4 352-189.1 532.5-274.9 128.7-61.2 259.3-118.4 392.3-169.6 116.3-44.7 234.4-83.9 354.6-116.7 10.9-3 21.8-6 32.6-9.6 20.4-6.8 41.2-9.9 62.6-11.7 29.8-2.4 59.5-6.9 89.1-11.2 9.1-1.3 18.1-4.6 26.7-8 20.5-8.1 36.4-21.8 47.2-41.2 7.1-12.8 14.8-25.3 21.3-38.4 5.3-10.7 9.8-21.9 13.5-33.2 5.8-17.7 10.3-35.8 16.1-53.5 4.5-13.9 9.1-27.9 15.5-41 16.1-33 42.8-50.2 80.1-48.8 11.9.5 23.8 1.9 35.7 3.3 35.7 4.2 71.4 8.6 107 12.9 15.9 1.9 31.7 4.1 47.6 5.6 39.8 3.7 79.6 6.9 119.3 10.5 39.1 3.6 78.2 7.6 117.3 11 17.2 1.5 34.6 1.8 51.9 3 44.5 3.1 89 6.5 133.5 9.6 35.2 2.5 70.4 4.4 105.6 7.2 47.1 3.8 94.2 8.4 141.3 12.3 24.5 2 49.2 2.9 73.7 5.1 34.5 3.2 68.8 8.5 103.3 10.3 32 1.7 63.4 7.8 95.3 9.9 9.9.6 19.8 2.5 29.6 4.3 15 2.7 25.7 11.3 30.2 25.9 3.5 11.4 5.7 23.3 8.3 34.9 2.5 11 4.5 22.2 7.3 33.1 6.4 24.6 21.9 39.8 46.4 47.5 66.7 20.9 132.5 44.5 197.6 70.2 163.3 64.3 321.1 139.9 472 229.5 65.9 39.1 130.2 80.8 192.3 125.7 15 10.9 28.9 23.5 42.7 36 13.8 12.5 26.7 26 40.3 38.7 5.3 5 11.2 9.5 17.3 13.5 21.2 13.9 42.5 27.5 63.8 41.1 18 11.4 36.4 22.2 54.3 33.7 26.6 17.1 49.6 38.1 68.6 63.4 9.7 13 21.8 23.2 35.1 32.2 54.1 36.8 106 76.4 151.1 124.1 20.1 21.2 38.8 43.9 57.4 66.6 8.9 10.9 17.7 21.7 29.4 29.7 18 12.3 31.6 28.6 42 47.5 15.2 27.5 32.8 53.2 51.8 78.2 70.8 93.4 121.7 196.8 155 309.1 12.5 42.2 21.6 85.2 29.4 128.4 4.7 26.2 6.3 52.9 9.3 79.3 1.4 12.6 3 25.1 4.4 37.7 1.4 13.2 2.4 26.5 4 39.7.5 4.4 2.4 8.7 3.7 13.1v120c-4.4 4.1-3.6 9.7-3.8 14.9-1.3 33-2.9 66-3.2 99-.1 18.4 2.1 36.9 3.6 55.3.2 2.3 2.2 4.5 3.4 6.7v24c-4.4 4.2-3.8 9.8-3.8 15-.3 48.1-8.4 95.5-12.2 143.3-.9 11.3-3.2 22.5-3.6 33.8-1.5 44.2-9 87.4-21.6 129.7-3.2 10.8-6.5 21.7-9.4 32.6-11.8 44.4-24 88.7-35.1 133.2-4.6 18.7-8.2 37.8-9.9 57-1.5 17.8-6.4 33.7-16 48.7-47.5 74-94.8 148.1-142.3 222.2-6.9 10.8-15.6 20.1-27.1 26-21.4 11.1-40.7 25.3-59.4 40.3-12.5 10.1-26.5 17.7-41 24.6-26.4 12.7-52.9 25.2-78.4 39.6-30.7 17.4-60.8 35.9-90.4 55.2-46.4 30.2-93.2 59.5-142.7 84.4-5.9 3-11.7 6.3-17.5 9.7-31.3 18-64.4 31.8-98.5 43.5-11.3 3.9-22.6 8.1-33.1 13.8-92.4 49.6-188.8 89.7-287.9 123.5-119.9 40.9-241.8 74-365.5 101-50.7 11.1-101.1 23.9-151.6 35.7-27.8 6.5-55.5 14-84.7 10.5-10.7-1.3-21.2 2.3-31.1 6.1-9.3 3.6-18.4 7.7-27.4 12.1-18.1 8.8-37.1 14.7-56.9 18.2-12.5 2.2-24.9 4.7-37.3 7-45.8 8.4-91.6 17.4-137.6 24.9-43.3 7.1-86.9 12.6-130.4 18.7-32.3 4.5-64.6 9.3-97 12.8-44.3 4.8-88.8 8.6-133.2 12.7-15.9 1.5-31.8 2.6-47.8 3.8-15.9 1.1-31.9 2.1-47.8 3.2-17.3 1.2-34.5 2.9-51.8 3.9-37.2 2.1-74.5 3.9-111.7 6-4.5.3-8.8 2-13.2 3-173-.2-346.2-.2-519.5-.2zm-40.7-181.6c48.3-1.4 121.6-3 194.8-5.8 46.6-1.8 93.1-5.2 139.7-7.8 48.5-2.8 97.1-5.2 145.6-8.4 44.5-2.9 89-6.4 133.5-9.6 20.6-1.5 41.2-2.7 61.8-4.5 69.7-6.1 139.3-12.4 209-18.5 33.8-3 67.7-5.6 101.6-8.5 19.9-1.7 39.8-3.3 59.7-5.2 19.9-1.9 39.7-4.6 59.6-6.4 43.8-4 87.6-7.2 131.3-11.6 48.4-4.9 96.6-10.8 144.9-16.5 24.5-2.9 49-5.5 73.3-9.4 42.7-6.9 85.3-14.7 127.9-22.3 90.5-16.2 180.1-36.4 268.9-60.2 161.1-43.3 318-98.2 469.9-167.1 128.9-58.5 252.3-126.6 369.3-206.4 57.8-39.5 113.8-81.4 167.2-126.6 9.6-8.1 18.9-17 26.8-26.8 48.5-59.6 84.8-125.5 104.1-200.5 14.1-55 19.2-110.1 10-166.3-3.2-19.7-5.4-39.7-16.1-57.3-19.3-31.9-37.9-64.3-58.2-95.6-33.7-52-68.6-103.1-102.9-154.8-7.8-11.8-16.6-22.6-27.8-31.2-19.6-14.9-39.2-30-59.3-44.2-19.6-13.8-40-26.5-59.8-40.1-33-22.7-64.7-46.8-93.3-75.1-8.9-8.8-19.2-16.6-30-23-60.1-35.7-121.5-69.1-184.6-99.5-125.7-60.5-255.3-110.6-388.3-152.3-78.2-24.5-157.3-45.4-237-64.5-66.1-15.8-132.4-30.1-199.3-42.1-48.5-8.7-96.9-18-145.6-25.4-57.3-8.7-114.8-15.7-172.2-23.4-22.4-3-44.8-7.4-67.3-8.7-63.9-3.6-127.1-14-191-17.6-57.8-3.3-115.5-9.6-173.3-13.5-41.2-2.8-82.5-3.7-123.8-5.5-31.9-1.4-63.9-2.4-95.8-4.5-75.9-5-151.7-6.7-227.6.2-25.2 2.3-50.5 3.1-75.8 4.5-44.5 2.5-89.1 4.8-133.6 7.5-24.6 1.5-49.1 3.7-73.7 5.5-35.9 2.6-71.8 4.8-107.6 8-42.5 3.8-84.9 8.2-127.2 12.9-33.8 3.7-67.4 8-101.1 12.2-27.1 3.4-54.2 6.8-81.2 10.5-68.6 9.3-137.1 19.8-205.1 32.8-56.9 10.9-113.6 22.8-170.2 35.2-100.2 22-198.8 50-296.2 82.4-68.9 22.9-136.7 48.8-203.4 77.5-17.7 7.6-35.6 15.2-52.4 24.6-81.3 45.7-164.2 88.3-247 131.2-72.2 37.4-144.3 74.8-213 118.4-60.3 38.2-118.5 79.3-170.5 128.5-26.1 24.7-51.9 49.8-77.8 74.8-4.3 4.2-8.4 8.6-12.4 13.1-29.3 32.6-50.9 69.8-68.3 109.8-19.7 45.3-33.8 92.5-49.1 139.4-5.5 16.8-7.6 33.6-6.7 51.1.8 14.6 1.7 29.3.7 43.9-3.2 43.8-7.1 87.6-11.2 131.4-4.4 47.6 2.3 93.1 25.7 135.3 10 18 20.6 35.8 32.1 52.9 32.7 48.4 73.8 89.3 118.3 126.7 44.9 37.8 92.8 71.9 143.5 101.4 70.2 40.8 141.4 80.1 212.4 119.6 16.8 9.4 34.3 17.7 52.1 25.4 72.8 31.4 146.5 60.1 221.9 85 128 42.2 258.3 74.7 390.7 99.3 45.8 8.5 92 15.2 138 22.5 19.1 3.1 38.1 6.4 57.2 8.7 32.4 3.9 64.9 7.3 97.3 10.6 33.8 3.5 67.6 7 101.4 9.7 30.5 2.4 61.2 2.9 91.7 5.7 64.4 5.9 129.1 6.9 193.6 8.4 79 1.4 157.6.1 261.2.1zM696.2 4086.4c.4 40.7 4.7 79.1 9.8 117.4 1 7.3 1.5 14.6 2.4 21.9 4.6 38.2 2 77.3 15.4 114.4 2.9 8 2.9 17 4.7 25.5 2.5 11.7 5 23.4 8.3 34.9 1.6 5.7 4.4 11.2 7.7 16.1 6.2 9.1 17.2 8.5 22.7-1.2 2.3-4 3.6-8.6 5.2-13 14.5-38.7 30.5-76.7 50.8-112.8 37.1-66 81.3-126.7 134.6-180.6 18.7-19 37.7-37.7 56.7-56.3 46.9-45.8 98.8-85.3 153.3-121.5 63.4-42.1 130-78.4 198-112.4 72.1-36.1 146-68.3 220.2-99.7 74.2-31.4 149.2-60.9 223.1-92.9 55.8-24.1 113.4-42.7 171.5-59.9 97.7-28.9 196.6-53.4 296.5-73.8 54.1-11 108.5-21.2 162.9-30.6 48.5-8.4 97.3-15.5 146.1-22.5 53.4-7.7 106.9-14.7 160.3-21.6 23.8-3.1 47.7-5 71.5-7.6 57.6-6.4 115.1-13.4 172.7-19.3 45-4.6 90.2-7.9 135.3-11.9 6-.5 12-1.1 17.8-2.5 12.4-3.1 19-11.7 19.5-24.3 1-24.6 2.2-49.2 3.2-73.9.7-17.3.4-34.7-3.1-51.7-4.8-23.1-23.6-44-52.5-42.8-3.3.1-6.7.1-10 .3-48.6 1.8-96.9 7.8-145.2 13.2-33.7 3.8-67.4 8.7-101 13.5-54.7 7.7-109.4 15.6-164.1 23.5-31.6 4.6-63.3 8.3-95.3 9.7-28.6 1.2-57.1 3.8-85.5 7.4-27.7 3.5-55.5 7.6-82.8 13.7-63 14.1-125.7 29.7-188.5 44.5-72.2 17-145.1 27.9-219.4 29.2-36.6.6-69.7-9.4-100.1-29-28.2-18.2-52.5-40.9-73.6-67-13.7-16.9-23.7-35.9-27.9-56.9-10.6-52.9-9.9-104.8 18.7-153 4.1-6.9 7.9-13.9 12.2-20.6 22.8-35.8 51.9-65.8 84.2-93 34.2-28.9 71.6-53.3 109.1-77.5 26.9-17.3 55.1-32.1 84.6-44.8 50.1-21.7 99.8-44.4 149-68 94.9-45.5 188.4-93.6 285.4-134.7 83-35.2 167.5-65.1 255.7-84.4 8.4-1.8 16.8-4.2 24.9-7.2 27-9.9 55-15.7 83.4-19.9 24.4-3.6 48.8-6.7 72.3-14.8 19.3-6.7 36.2-16.9 49.3-32.8 4.6-5.6 8.8-11.8 11.7-18.5 5.5-12.9 0-26.3-12.7-31.5-4.7-1.9-10.4-2.4-15.6-2-18.6 1.4-37.3 2.2-55.7 5.4-48.6 8.4-96.5 19.9-143.4 35.4-34.8 11.5-69.4 23.4-104.2 34.6-110.9 35.7-220.7 74.7-329.6 116.1-92.7 35.3-184.5 72.9-275.4 112.8-123.9 54.4-244.9 114.6-362.9 180.7-96 53.7-188.8 112.7-278.3 176.7-28.8 20.6-57.9 40.3-89.9 55.7-6.6 3.2-12.8 7.1-19.2 10.8-143.9 82.8-269.5 188.2-381.1 310.7-70.5 77.5-134.9 159.9-195.8 245-15.3 21.4-26 44.9-33.4 70-6 19.9-13.8 38.9-25.2 56.3-6.3 9.6-10.6 20-13.2 31.1-6.7 28.5-13.1 57.1-20.2 85.5-10.1 39.9-13.4 80.2-8.5 120.9 1.8 19 3.3 38.2 2.6 55.5zm5401.3-232.3h-.3c0-6.7.6-13.4-.1-20-5.1-47-11.7-93.9-21.5-140.2-13.5-63.3-34.1-124.5-57.9-184.7-29.8-75.6-70.1-144.8-119.9-209-61.1-78.7-128.9-151-202.6-217.8-76.6-69.5-158-133-241.9-193.3-74.1-53.3-149.7-104.4-226.4-153.9-103.6-66.8-207-133.8-310.7-200.4-11.1-7.1-23-13.8-35.5-18-64.5-21.6-126.3-49.9-188.4-77.4-47.5-21-95-42.1-144.1-59-5-1.7-10-3.8-15.2-4.8-11.9-2.5-21 6.2-19.5 18.3.6 4.6 1.6 9.2 2.6 13.7 15.1 66.9 30.3 133.8 45.4 200.7.9 3.9 1.3 8 2.7 11.6 3.7 9.7 13.2 13.8 22.7 9.8 3.1-1.3 5.9-3.2 8.9-4.6 19.1-9.2 39.1-12.5 60.2-10.7 15.4 1.3 30 6 44.6 10.7 82.6 26.5 162.2 60.6 239.1 100.6 70.9 36.9 141 75.3 211.2 113.4 21.6 11.7 43.5 23.4 63.9 37.1 43.2 29 87.1 56.7 131.7 83.3 52.6 31.4 105.4 62.5 157.4 95 57.7 36.2 112.2 76.6 160 125.7 30.4 31.3 55.3 66.5 76.7 104.4 9.4 16.7 13.8 34.5 13.3 53.6-.2 8-.4 16-1.6 23.9-5.9 36.1-12 72.3-18.6 108.3-2.4 13.1-7.1 25.6-14.5 37-17.4 26.8-47.4 40.2-77.3 34.3-85.6-16.7-170.5-36.7-255.1-57.8-78.8-19.6-157.6-39.4-236.4-59.1-71-17.8-142.3-34.8-214.3-48.2-47.1-8.7-94.4-16.5-141.8-23.9-26.3-4.1-52.9-6.7-79.3-10-10.6-1.3-21.2-2.3-31.7-3.7-14.6-1.9-24.8 4.9-30.8 17.2-9.9 20.3-19.1 41.1-28 61.9-4.2 9.8-5.8 20.5-5.8 31.3 0 12.2 6.6 20 16.8 25 4.1 2 8.9 2.9 13.4 3.7 62.2 11.8 123.8 26 185.1 41.4 92.3 23.2 183.9 49.1 274.1 79.9 31.5 10.7 62.7 22.4 94.5 32.3 113.7 35.5 222 82.9 324.2 144.1 84.8 50.8 163.9 109.5 238.8 173.9 75.9 65.3 145.9 136.6 213.6 210.2 9.9 10.8 19.5 21.9 29.7 32.4 5.5 5.7 11.5 11.3 18.1 15.6 13.8 9 26.6 7.3 37.5-5.2 5.1-5.9 8.6-13.3 12.3-20.4 14.7-28.4 20-58.5 19.2-90.6-.6-23.8.7-48 7.2-71.3 4.6-16.5 3.9-33 1.9-49.6-1.1-9.2-3.2-18.4-4.7-27.6-3.8-22.3-7.9-44.6-2.8-67.4 1.2-6.7-.1-14.3-.1-21.7zm-1768.9-695.7c0 .6 0 1.1-.1 1.7 57.3 1.2 114.6 2.3 171.8 3.4 6 .1 12 0 17.9-.9 39.4-5.9 63.6-43.2 54.2-76.5-7.6-26.9-12-54.6-18-81.9-25.3-114.4-50.1-229-76.2-343.2-25.6-111.6-52.5-223-82.7-333.5-6.5-23.8-13.3-47.4-19.7-71.2-2.9-10.8-9-19.3-17.6-25.9-8.5-6.6-17.1-6.7-25.7-.2-4.2 3.2-7.9 7.2-11.2 11.3-10.4 13-20 26.7-30.7 39.4-11.6 13.7-23.6 27.1-36.3 39.8-12.4 12.5-28 20.3-44.4 26.1-12.3 4.4-23.6 2.8-33.8-5.5-7.7-6.4-15.5-12.7-22.7-19.5-4.3-4.1-8.3-8.8-11.4-13.8-8.3-13.7-7-27.1 4.2-38.3 5.1-5.1 11.3-9.3 17.7-12.7 11.8-6.2 24.3-11 36-17.3 15.2-8.2 30.3-16.7 44.8-26 6-3.8 11-9.7 15.3-15.4 4.7-6.2 3.4-12.3-1.9-18-6.4-6.9-14.6-8.4-23.5-9.1-41.2-3.1-82.3-6.4-123.5-9.7-19.9-1.6-39.8-3.7-59.7-5.2-27.2-2-54.5-4-81.7-5.5-19.9-1.1-32.6 10.2-34.7 30.3-.6 6-.6 12-.6 18 0 9.9-3.6 18.5-10.8 24.9-6.4 5.7-13.6 10.7-21 15-11.5 6.7-22.9 5.1-33.9-2-14.3-9.3-22.2-22.9-25-39.3-1.7-9.8-1.9-19.9-2.3-29.8-.8-21-7.9-28.2-29.3-29.2-12-.6-24-.9-35.9-1.8-29.2-2-58.4-4.2-87.6-6.3-12-.8-23.9-1.6-35.9-2.4-22.6-1.6-45.2-3.4-67.8-4.9-23.9-1.6-47.9-2.3-71.8-4.4-12-1-23.8-1.9-35.8.3-11.3 2.1-22.5 1.2-33.8-.5-14.5-2.2-29-4.4-43.5-5.8-32.8-3.1-59 14.4-68.3 46.1-6.2 21.2-9.2 43.1-7 65.2 4.4 43.7 9.5 87.4 14.3 131.1.3 2.6.6 5.3 1.2 7.9 8.4 40.4 16.7 80.9 25.5 121.2 6.1 28.1 10.3 56.3 9.4 85.2-.6 19.3.3 38.6.3 58 0 25 4.5 49 14.1 72 4.7 11.3 6.5 22.8 6.9 35 .6 20 1 40.1 3.8 59.8 6 42.2 10.3 84.6 18.5 126.5 8.1 41.8 14.3 84 20.6 126.2 3.5 23.4 15 41.1 34.2 54 24.3 16.4 50.6 25.9 80.5 25.6 40-.4 80 .2 119.9.9 50.6.9 101.2 2.4 151.8 3.8 8 .2 15.9 1.1 23.9 1.6 29.2 1.9 58.5 4.1 87.7 5.5 28.6 1.3 57.2 1.4 85.8 3.9 51.7 4.4 103.7 7.1 155.6 9.7 50 2.5 99.9 4.2 149.9 6.3zm-2272.5 72.9c19.2-1.4 38.6-1.6 57.6-4.6 57.2-9 114.2-19 171.2-28.9 49.2-8.6 98.2-18 147.4-26.4 68.2-11.7 136.5-23 204.8-34.1 56.5-9.1 113-18 169.6-26.4 42.1-6.2 84.4-11.5 126.6-16.8 15.2-1.9 30.5-2.6 45.7-4.2 41.7-4.3 83.4-8.8 125.1-13.3 2.6-.3 5.3-.1 8-.4 15.1-1.7 22.9-9.8 22.8-24.8-.1-11.3-.5-22.7-1.9-33.9-4-31.7-8.3-63.4-13-95-5.7-37.5-11.4-75-18.1-112.3-12.6-69.5-24.5-139-28.3-209.6-.3-4.6-.8-9.3-2-13.8-5.9-22.9-23-33.6-46.3-29.2-20.9 3.9-42 7.4-62.8 11.8-112.3 23.7-221.3 58.2-328.3 99.5-85.1 32.8-168.6 69.5-251.4 107.7-67.7 31.3-134.8 63.7-202.7 94.5-47.6 21.6-91.7 48.7-134 79-19 13.6-36.2 29.3-52.9 45.6-42.3 41.4-68.8 90.7-78.7 149.3-3.1 18.2 1 32.8 12 46.4 13.6 16.8 31.6 26.1 52.3 31 25.4 6.4 51.1 9.1 77.3 8.9zm3557.3 212.3c7.3-1.5 16-2.4 24.1-5.1 15.5-5.1 26.4-15.7 30.7-31.6 3.6-13.5 5.6-27.2 4.1-41.5-2.5-23.9-11.2-45.1-25.7-64-20.7-27.1-43.4-52.2-71-72.7-19.8-14.7-39.3-29.7-59.3-44.2-144.3-104.4-295.7-197.4-452.3-282.1-141.3-76.4-286.5-144.5-434.5-206.8-9.2-3.9-18.3-7.9-27.7-11.4-12.4-4.5-21.1 2.8-19.3 16.1.5 3.9 1.7 7.8 2.5 11.7 17.1 76.7 34.1 153.4 51.2 230 17.5 78.6 33.3 157.6 47.4 236.9 2.4 13.8 4.8 27.6 7.6 41.3 2.9 14.6 11.8 23.6 26.6 26 26.3 4.3 52.6 8.2 78.9 12.7 66.2 11.4 132.6 22.4 198.6 34.8 49.1 9.2 97.9 19.4 146.6 30.6 118 27.3 235.5 56.9 351.3 92.8 31.8 9.9 64.2 17.6 97.2 22.6 7.2 1.3 14.4 2.5 23 3.9zm-1594.3-2440c4.4 2.6 8.9 5.1 13.3 7.8 12.8 7.9 20.7 18.6 19.3 34.5-.4 4.6-.4 9.3-1 13.9-3.7 24.3-7.7 48.6-11.4 72.9-4.2 27.6-8.1 55.3-12.4 82.9-6.1 39.5-12.5 78.9-18.6 118.3-3.5 22.4-6.4 44.8-10 67.1-1.7 10.5-3.8 20.9-6.7 31.1-6.4 22.4-14.2 44.4-20 66.9-6.2 24-13.6 47.2-26.7 68.5-8.9 14.4-13.3 30.4-14.4 47.3-.9 12.6-1.8 25.2-2.9 37.8-1 10.7-3.5 21.1-9.3 30.3-8.4 13.1-19.8 21.2-36.2 20.8-18.7-.5-33.9-12.8-34.8-31.4-.8-15.2.3-30.6 2.5-45.7 6.9-48.1 15-96 22-144 8.2-56 15.2-112.1 24-168 8.8-55.9 18.4-111.6 29.2-167.1 6.7-34.6 16.7-68.5 24.5-102.9 4.6-20.5 16.6-32.6 36.9-37.1 3.1-.7 5.9-2.6 8.8-4 7.9.1 15.9.1 23.9.1zm-589.4 669.6c-2.3 7-3.6 14.4-7.1 20.5-7.5 12.8-18.9 16-32.4 9.7-18.7-8.7-32.9-22.6-42.7-40.6-5-9.3-9.2-19.2-12.6-29.3-7-20.8-13.3-41.9-19.8-62.9-5.2-16.6-12.4-32.2-22-46.8-20.9-31.9-36.5-66.4-50-102-20.3-53.6-35-109-50.6-164-14.6-51.3-29.9-102.2-52.2-150.8-8.5-18.5-6-34.7 6.8-50.1 25.8-30.9 37.7-30.2 69.6-19.5 21.2 7.1 35.9 22.5 46.6 41.6 9.8 17.6 16 36.6 20.2 56.2 5.6 26 10.5 52.2 16.5 78.1 3.3 14.2 6.7 28.7 12.7 42 15.1 33.6 24.7 68.9 33.6 104.4 9.7 38.7 18.8 77.6 27.1 116.7 6.6 31.2 12 62.8 17 94.3 2.6 16.1 8 30.8 15.4 45.1 5.2 10 11 19.9 15.4 30.2 3.5 8.6 5.6 17.7 8.5 27.2zm-856-233.9c29.9 1.6 53.4 7.9 74.1 22.7 12.5 8.9 24.7 18.2 36.8 27.6 60 46.6 120 93.2 179.7 140.1 8.9 7 17.3 14.7 24.6 23.3 22.8 26.5 49.4 48.5 77.5 68.8 24.3 17.6 48.5 35.2 72.5 53.2 6.9 5.2 13.2 11.2 18.9 17.7 6.8 7.6 12.1 16.6 7.4 27.3-4.9 11-13.5 18.3-25.8 19.7-16.2 1.8-32 .3-46.5-7.9-5.2-3-10.4-6-15.3-9.5-65.9-47.7-135.8-89.3-205.1-131.7-52.3-32-104.8-63.7-154.7-99.2-24.4-17.4-48.2-35.7-72.2-53.6-3.2-2.4-6.1-5.1-9.1-7.8-17.6-15.5-20-35.7-15.4-56.8 3.2-14.5 13.8-24.5 27.9-29 9.4-3.1 19.5-3.9 24.7-4.9zm2210.1-97.3c21 .1 32.7 7.8 38.1 23.2 3.5 10 7.3 20.3 8.4 30.7 2 19-1.1 37.1-16.1 51.3-7.7 7.3-14.9 15.2-21.8 23.3-47.6 55.7-94.9 111.7-142.5 167.4-42.8 50.2-85.7 100.2-128.8 150.2-12.6 14.6-25.8 28.7-39.1 42.8-4.5 4.8-9.7 9.3-15.2 12.8-19.2 12.1-45.9 5.9-58.2-13.1-4.7-7.2-5.9-14.9-1.8-22.7 2.7-5.3 5.9-10.4 9.5-15.2 77.2-104.5 154.5-208.9 231.7-313.3 23.4-31.6 46.6-63.3 70.1-94.8 5.6-7.5 11.4-14.9 18-21.3 14.4-14.2 32-21.2 47.7-21.3zm67.8 711.4c-10.4.5-20-.8-27-9.8-5-6.4-6.2-13-2.6-20.5 3.3-6.8 8.1-12.2 14.5-16.1 3.9-2.4 8.1-4.6 12.4-6.5 70.5-31.8 138.3-68.8 205.5-107 72.9-41.4 145.4-83.9 221-120.5 8.4-4.1 16.8-8.2 25.3-11.8 9.3-4 19.2-6.4 29.2-4.8 6.4 1 13.3 2.8 18.5 6.4 18.1 12.7 19.3 27.1 4.2 41.3-5.8 5.5-11.9 10.9-18.6 15.1-20.3 12.7-40.4 26.1-61.7 36.8-54.1 27.2-108.8 53.3-163.5 79.4-33.1 15.8-64.6 34.6-95.6 54.1-25.4 16-51.5 30.6-78.8 43.1-26.3 12.1-54.1 18.2-82.8 20.8zM2809.3 2140c-34-1.1-67.8-2.8-101.5-7.5-30.9-4.3-62.2-6.2-93.2-10-28.4-3.4-56.5-8.5-84.9-11.8-35.6-4.2-71.4-7.5-107.1-11-17.3-1.7-34.1-5.7-50.2-12.2-12.7-5.1-23.2-13.1-30.7-24.5-9.3-14.1-6.3-27 8.9-35 11.9-6.3 24.8-9.3 38.6-6.9 28.8 4.9 57.7 9.8 86.6 14.3 35.5 5.5 71 10.5 106.5 15.7 25.6 3.8 51.3 7.8 77 11.2 27 3.5 54.1 6.3 81.2 9.5 7.3.9 14.5 2.2 21.7 3.1 34.3 4.3 68.6 8.5 102.9 12.8 9.9 1.3 19.8 2.8 29.6 4.6 3.9.7 7.8 1.9 11.3 3.8 13.7 7.6 14.9 20.4 3 30.9-6.2 5.5-13.5 8.2-21.8 8.7-26.1 1.2-52 2.8-77.9 4.3zm2549.4 106.5c12.6 0 25.3-.1 37.9 0 26.7.4 41.7 26.3 28.3 49.2-7.4 12.5-18.1 21-32.8 24-15.8 3.3-31.8 2.6-47.7 1.7-8-.5-15.9-1.4-23.9-2-19.4-1.4-38.4.4-57.3 5.3-10.2 2.6-20.9 3.9-31.5 4.2-29.2.8-58.3 2.3-87.5 6-32.9 4.2-66.2 6.3-99.4 7.5-16.5.6-33.1-2.2-49.6-4.4-14.3-1.9-25.5-13.3-25.6-28.6 0-13.1 6.8-23 20-25.8 9.7-2.1 19.7-3.3 29.5-4.6 16.5-2.1 33-4.2 49.5-5.9 33.7-3.6 67.4-6.9 101.1-10.3 11.9-1.2 23.8-2.4 35.7-3.5 37.7-3.5 75.5-7.2 113.2-10.4 13.2-1.1 26.6-1.1 39.9-1.7.2-.1.2-.4.2-.7z"/><path d="M3723.6 3701.7c13.3 0 26.6-.2 40 0 38.6.7 77.3 1.2 115.9 2.5 42.6 1.4 85.2 3.4 127.7 5.3 24.6 1.1 49.3 1.7 73.8 4.5 50.3 5.8 100.4 12.8 150.5 19.4 20.5 2.7 40.9 5.4 61.3 8.7 44 7.2 88.1 14.3 132 22.2 122 21.9 242.5 50 362 82.9 73.8 20.3 146.9 43.3 219.1 68.6 88 30.8 174.9 64.6 259.8 103.1 102.6 46.5 202.7 97.8 298.8 156.8 8.5 5.2 16.7 11 24.5 17.3 34.8 27.9 69.3 56.3 104.2 84.1 26.7 21.3 51 44.8 72.7 71.2 24.5 29.8 42.7 62.6 49.9 101 3.5 19 8.8 37.5 16.8 55.3 6.4 14.1 8.1 29.5 7.2 45-1.9 33.6-9.5 65.9-22 97-3.7 9.1-9 18.2-15.7 25.2-42.7 45.2-79 95.5-116.9 144.4-19.7 25.5-42.4 47.5-68 67.1-116.7 89.8-242.8 163.8-375.7 226.6-17.7 8.4-36.2 13.2-55.6 15.1-34.1 3.2-52.3-13.5-50.2-47.5.8-12.5 3.3-25.1 6.5-37.3 6.1-23.2 5.2-46-.7-69.1-17.2-67.7-34.3-135.5-51.3-203.3-13.2-53-28.6-105.4-48-156.5-3.1-8.1-5.6-16.5-9.8-24-4.5-8-9.9-15.8-16.2-22.5-8.3-9-19-12-31-7.2-3.1 1.2-6.2 2.3-9.3 3.6-50.1 20-100 40.5-150.3 60-62.1 24.1-124.2 47.9-186.7 71.1-47.4 17.6-95 34.8-143 50.9-75.1 25.2-150.8 48.6-227.6 68.4-60 15.4-120.4 28.9-181.2 40.6-36.6 7.1-73.5 12.2-110.4 17.6-45.5 6.7-90.6 15.3-135.4 25.6-55.8 12.8-111.9 24.5-168.4 33.4-32.3 5.1-64.9 6.5-97.6 7.5-4.7.1-9.3.1-14 .7-11.6 1.3-22.6-.1-32.9-5.8-12.3-6.8-24-6.5-35.6 2-12.3 9-26.8 11.2-41.5 12.8-31.8 3.4-63.8 4.9-95.8 4.7-54.6-.3-109.2-.8-163.8-3.3-65.2-2.9-130.3-8.9-195.7-7.2-31.3.8-62.6 2.3-93.8 4.2-16.8 1-33.1-.5-49.4-4.9-64.3-17.5-129.3-31.6-194.7-44.3-52.3-10.1-104.8-19-157-29.5-82.2-16.6-164.7-31.9-246.2-52-88.2-21.8-174.2-49.6-257.4-85.6-28.7-12.4-56-27.9-83.5-42.8-25.2-13.7-50.9-26.2-77.8-36.2-15.7-5.9-31.9-9.6-48.6-10.6-14.8-.9-24.1 4.5-29.4 18.7-4.2 11.2-7.7 22.8-9.8 34.5-7 38.1-10.7 76.5-10.2 115.3.6 45.3 1.3 90.6 2.5 135.9.3 9.9 2 19.9 4.4 29.5 6.5 25.3 9.5 51 10.6 77.1 1.1 25.3 2.8 50.6 4.5 75.8 1.3 20.7 4.7 41 11.2 60.7 1.9 5.7 3.2 11.5 4.9 17.3 4.3 15-1.4 26.3-13.7 34.3-14.3 9.3-30 14.6-47.4 10.8-45-9.7-88.9-22.6-130.5-43-63.8-31.2-122-70.7-177.3-115.1-54-43.4-109.1-85.4-163-128.9-20.2-16.3-38.9-34.4-57.3-52.8-29.7-29.7-58.2-60.5-82.5-94.9-26.6-37.5-44.8-78.5-53.9-123.6-6.3-31.8-6.7-63.6-1-95.4 5.9-32.8 12.2-65.4 19.4-97.9 7.8-35.1 24.7-66 47.7-93.5 19.3-23 40.3-44.4 62.9-64.2 21.5-18.9 42.8-38.1 64.6-56.7 11.1-9.5 22.6-18.7 34.8-26.8 84.8-56.8 172.8-108.1 263.7-154.4 124.8-63.5 253.4-118.3 385.8-163.8 102-35 205.4-65.7 310.1-92.2 94.9-24 190.8-43.7 287-61.4 48.4-8.9 97.1-16.6 145.9-23.7 46.1-6.7 92.4-12.3 138.7-17.7 50.3-5.8 100.6-11 150.9-15.9 32.5-3.2 65-5.4 97.5-7.9 48.5-3.7 96.9-7.7 145.4-10.8 29.2-1.9 58.5-2.9 87.8-3.7 36.6-1 73.3-1 109.9-1.9 32-.8 63.9-3.1 95.8-3.4 59.3-.6 118.6-.4 177.9-.1 16 .1 31.9 1.4 47.9 2.2.2.4.2.6.2.8zm-123.2 117.5c-124.6 0-233.9-.1-343.2.1-17.3 0-34.6 1.3-51.9 2.2-33.9 1.7-67.8 4.2-101.8 5-31.3.7-62.6 1.5-93.8 4.5-58.3 5.7-116.7 10.5-175 16.5-33.8 3.5-67.5 7.5-101 12.9-51.9 8.4-103.7 17.7-155.4 27.4-45.8 8.6-91.4 18.1-137.1 27.5-77 15.9-153.2 35-228.8 56.4-92.9 26.3-184.7 56.2-275.1 90.1-118.6 44.5-234.4 95.2-347.3 152.6-5.3 2.7-10.9 5.3-15.6 8.9-9.7 7.4-14.8 17-11 29.7 1.1 3.8 1.8 7.8 2.7 11.7 11.6 45.8 36.2 83.9 68.4 117.9 34.1 35.9 73.1 66.1 110.7 98 10.3 8.8 22.4 14.2 35.2 18.4 53.1 17.6 106.2 35.1 159.1 53.2 105.2 36 210.5 71.6 318.2 99.8 59.3 15.5 118.9 29.5 179.5 38.7 17.8 2.7 35.5 5.6 53 9.5 53.2 12 106.2 25.5 159.6 36.7 48.2 10 96.8 18.4 145.4 26.3 60.5 9.9 121.3 17.3 182.3 22.7 49.1 4.3 98.1 10.1 147.5 10.2 17.3 0 34.6.8 51.9 1.5 53.3 2.1 106.5 4.7 159.8 2.2 69.2-3.2 138.6-2 207.6-9.2 39.7-4.2 79.6-7.2 119.2-12.5 45.5-6.2 90.9-13.4 136-22 64.1-12.3 128-25.4 191.6-39.8 109.1-24.7 217.1-54 325.1-82.9 9-2.4 18-4.8 27.2-6.2 36.9-5.5 73.4-13.1 109.5-22.4 72.3-18.7 142.6-43.6 212.7-68.9 59.5-21.4 119-42.9 180.1-59.6 20.8-5.7 40.2-13.7 58.9-24.3 81.7-46.3 162.7-94 240.7-146.4 40.9-27.5 80.4-57.1 120.5-85.8 9.3-6.7 17.4-14.5 22.9-24.7 7.7-14.2 5.4-25.1-7.8-34.7-4.8-3.5-10.2-6.2-15.5-9.2-112-62.7-229.9-111.8-351.9-151.1-96.4-31.1-194.4-56.4-293.6-76.7-56.1-11.5-112.4-21.9-168.7-31.8-40-7-80.2-12.6-120.4-18.6-27.6-4.2-55.3-8.4-83-12.2-44.2-6-88.4-11.5-132.6-17.4-13.2-1.8-26.3-4.2-39.4-6.1-21.7-3.1-43.4-7.4-65.2-8.7-27.2-1.6-54.6-.7-81.9-1-48.6-.5-97.3-.4-145.9-1.7-66-2.1-131.9-4.9-182.4-6.7zM3570 2507.6c14.7 0 26.1 1 36.3 6.5 12.2 6.6 25.6 2.6 32.1-13.4 2.7-6.7 4.3-14 4.9-21.2 1.1-12.1 4.3-23.5 8.9-34.7 23-55.8 61.9-97.3 114.6-126.1 35.4-19.3 73-32.2 113.2-37 9.9-1.2 20-1.9 29.9-1.2 37.2 2.6 74.3 6.1 110.7 14.6 54.4 12.7 105.3 33.4 151.9 64.1 40.4 26.7 70.5 62.8 91.4 106.2 5.4 11.2 7.7 24 10.8 36.2 3.1 12.2 5.1 24.8 8.2 37 1.6 6.4 3.9 12.8 6.9 18.7 6.5 13.2 16.6 20.5 32.1 18.2 7.9-1.1 15.9-1.8 23.8-2.8 21.6-2.5 42.6.8 63 7.4 6.1 2 12.2 5.5 17.2 9.7 7.2 6.1 7.5 14.1 1.5 21.2-3.8 4.5-8.3 8.7-13.1 12.2-26.7 19.8-56.3 32.6-89.5 36.6-8.6 1-17.2 2.1-25.9 2.2-12.7.1-21.2 6.5-28.1 16.2-1.5 2.2-2.8 4.6-4.1 6.9-22 38.5-53 68.1-90.8 90.8-38.6 23.2-80.3 38.6-123.3 50.9-4.5 1.3-9.2 2.2-13.2 4.3-7.1 3.7-9.9 12.3-5 18.7 15.3 20 16.4 43 16.1 66.6-.2 17.3-.3 34.6-1.2 51.9-.4 7.2-1.7 14.8-4.5 21.3-7.9 18.4-13.4 37.6-18.4 56.9-2.8 11.1-7.4 21.4-16.3 29.2-6.2 5.4-12.7 10.5-21.4 7.8-9.8-3-14.9-10.7-16.6-20.6-.7-3.9-.8-8-1.3-11.9-4.6-34.3-9.4-68.6-13.9-102.9-2.3-17.8-4.1-35.7-6.1-53.6-1.1-9.7 1.2-18.5 6.6-26.6 1.8-2.8 3.9-5.4 5.6-8.3 6.5-11 3.9-20.5-7.6-26.3-5.3-2.7-11.1-4.4-16.8-6.2-20.9-6.9-41.9-13.3-62.6-20.5-24.5-8.5-49-17.1-73-26.9-40.1-16.4-74.6-40.8-101.5-75.4-13.2-17-23.2-35.6-30.6-55.8-5.5-15-11.2-29.9-17.3-44.7-2.2-5.5-5.1-10.9-8.7-15.6-5.6-7.3-13.4-8.4-21.3-4.1-1.7 1-3.4 2.1-4.9 3.4-23.1 19.2-51 22.4-79.2 21.6-23.9-.6-47.8-3.6-71-10.3-5.1-1.5-10.4-2.8-14.9-5.4-10.1-5.7-12.8-15.1-7.5-25.6 5.8-11.7 14.4-21 26.3-26.5 21.2-9.7 42.6-18.9 64-27.9 6.1-2.5 12.8-3.8 19.3-4.9 5.5-.6 11.6-.6 14.3-.9zm424.6 240.1c21.6 1.3 48.2-5 74.6-11.9 24.7-6.5 47.5-17.1 68.7-31.4 21.5-14.5 37.6-33.3 47.5-57.7 7.8-19.3 13.3-39.1 16.9-59.4 2.4-13.9 2.6-27.9-.3-41.8-10.8-51.4-35.9-92.8-84.2-117.4-8.9-4.5-17.8-9.1-26.9-13.1-26.4-11.5-54.3-18.1-82.4-23.3-31.4-5.9-63-10.4-94.7-14.6-9-1.2-18.7-.7-27.7 1.2-49.8 10.3-91.6 34.9-126.9 71.3-11.9 12.3-20.1 26.3-23.9 43-1.6 7.1-4.5 13.9-6.3 21-2.5 10.3-5 20.7-6.7 31.2-3.2 19.5 1.8 37.1 14.4 52.2 32.4 39.1 67.1 75.9 109.7 104.2 43 28.6 89.6 46.7 148.2 46.5z"/><path d="M3719.5 2783.7c8.6 1.3 17.2 2.2 25.6 3.9 9.2 1.9 17.6 6 24.9 12.1 14 11.6 15.9 20.8 6.5 36.4-10.4 17.2-22.8 32.8-38.2 45.8-15.8 13.3-31.5 26.6-47.5 39.8-39.5 32.6-79.1 65.2-118.8 97.7-5.1 4.2-10.4 8.4-16.1 11.7-12.8 7.5-23.5 6.3-34.6-4-3.9-3.6-7.3-7.8-10.1-12.3-5-7.9-5.2-16.4-.7-24.7 2.2-4.1 4.7-8.1 7.6-11.7 31.9-40.2 63.3-80.7 96-120.1 16.1-19.4 34.6-36.8 52.4-54.9 14.6-14.6 32.8-19.6 53-19.7zm774.7 199.3c.1 14.9-12.2 31.7-23.6 35.2-6 1.8-12 .8-17.4-2.3-9.8-5.6-20.1-10.6-29.1-17.4-18-13.7-36-27.5-52.5-42.9-28.3-26.5-58.2-50.7-91-71.3-16.4-10.3-32.2-21.2-46.1-34.9-11.1-10.9-19.1-23.5-24.8-38.1-5.9-15.3.4-26.1 12.5-33.9 8.1-5.2 17.2-6.8 26.8-4.9 6.5 1.3 13 2.7 19.6 3.5 15.8 1.8 29 8.3 40.5 19.4 26.3 25.5 53.2 50.3 79.5 75.7 28.7 27.7 57.2 55.7 85.7 83.7 4.7 4.6 9.5 9.5 13.2 14.9 3.5 4.7 5.4 10.5 6.7 13.3zM3680 2281.9c-1.7 9.1-2.4 18.6-5.4 27.3-2.5 7.4-6.6 14.6-11.5 20.6-6.9 8.4-15.9 10.9-26.9 6.8-14.6-5.4-27.7-13.1-39.5-23-10.7-8.9-20.6-18.9-30.3-28.9-10.2-10.5-19.5-21.8-29.6-32.4-12.9-13.5-27.2-25.5-43.3-35.1-20.2-12-30.3-31.2-36.8-52.7-2.8-9.3 6.1-19 15.8-17.8 3.9.5 7.7 2 11.5 3.3 26.7 8.8 51.8 21 76.1 34.8 32.3 18.5 64.4 37.5 96.5 56.3.6.3 1.1.7 1.7 1.1 16.9 10.8 21.5 19.4 21.7 39.7z"/></svg>